<svg width="19" height="18" viewBox="0 0 19 18" fill="none" xmlns="http://www.w3.org/2000/svg">
<path d="M13.96 0C14.4728 0 14.8955 0.386044 14.9533 0.88338L14.96 1V2H16.96C18.0144 2 18.8782 2.81588 18.9545 3.85074L18.96 4V16C18.96 17.0544 18.1441 17.9182 17.1093 17.9945L16.96 18H2.96C1.90564 18 1.04183 17.1841 0.965485 16.1493L0.959999 16V4C0.959999 2.94564 1.77588 2.08183 2.81074 2.00549L2.96 2H4.96V1C4.96 0.44772 5.40772 0 5.96 0C6.47283 0 6.89551 0.386044 6.95327 0.88338L6.96 1V2H12.96V1C12.96 0.44772 13.4077 0 13.96 0ZM16.96 9H2.96V16H16.96V9ZM16.96 4H2.96V7H16.96V4Z" fill="#182F43" fill-opacity="0.5"/>
</svg>
