<svg width="19" height="21" viewBox="0 0 19 21" fill="none" xmlns="http://www.w3.org/2000/svg">
<path fill-rule="evenodd" clip-rule="evenodd" d="M9.9625 0C14.9331 0 18.9625 4.02944 18.9625 9C18.9625 12.0738 17.2866 14.5892 15.5209 16.3945C14.5522 17.3849 13.5222 18.1973 12.6442 18.8113L12.2189 19.1017C12.1504 19.1473 12.0833 19.1915 12.0176 19.2343L11.6414 19.474L11.3054 19.6791L10.8896 19.921C10.3104 20.2481 9.6146 20.2481 9.0354 19.921L8.61963 19.6791L8.10016 19.3584C8.03742 19.3184 7.97313 19.2771 7.90741 19.2343L7.49699 18.9607C6.57494 18.3315 5.45356 17.4674 4.40412 16.3945C2.6384 14.5892 0.962502 12.0738 0.962502 9C0.962502 4.02944 4.99194 0 9.9625 0ZM9.9625 2C6.09651 2 2.9625 5.13401 2.9625 9C2.9625 11.3224 4.23452 13.3608 5.83391 14.996C6.56937 15.7479 7.35004 16.3895 8.05542 16.9063L8.5132 17.2322C8.66119 17.3346 8.80414 17.4307 8.94073 17.5203L9.33008 17.7694L9.67332 17.9788L9.9625 18.1475L10.417 17.8792L10.7843 17.6498C10.9792 17.5252 11.1898 17.3858 11.4118 17.2322L11.8696 16.9063C12.575 16.3895 13.3557 15.7479 14.0911 14.996C15.6905 13.3608 16.9625 11.3224 16.9625 9C16.9625 5.13401 13.8285 2 9.9625 2ZM9.9625 5C12.1716 5 13.9625 6.79086 13.9625 9C13.9625 11.2091 12.1716 13 9.9625 13C7.75336 13 5.9625 11.2091 5.9625 9C5.9625 6.79086 7.75336 5 9.9625 5ZM9.9625 7C8.8579 7 7.9625 7.89543 7.9625 9C7.9625 10.1046 8.8579 11 9.9625 11C11.0671 11 11.9625 10.1046 11.9625 9C11.9625 7.89543 11.0671 7 9.9625 7Z" fill="#182F43" fill-opacity="0.5"/>
</svg>
