<svg width="6" height="86" viewBox="0 0 6 86" fill="none" xmlns="http://www.w3.org/2000/svg">
<path d="M3 0.333333C1.52724 0.333333 0.333333 1.52724 0.333333 3C0.333333 4.47276 1.52724 5.66667 3 5.66667C4.47276 5.66667 5.66667 4.47276 5.66667 3C5.66667 1.52724 4.47276 0.333333 3 0.333333ZM3 80.3333C1.52724 80.3333 0.333333 81.5272 0.333333 83C0.333333 84.4728 1.52724 85.6667 3 85.6667C4.47276 85.6667 5.66667 84.4728 5.66667 83C5.66667 81.5272 4.47276 80.3333 3 80.3333ZM2.5 3V4H3.5V3H2.5ZM2.5 6L2.5 8H3.5L3.5 6H2.5ZM2.5 10V12H3.5V10H2.5ZM2.5 14V16H3.5V14H2.5ZM2.5 18V20H3.5V18H2.5ZM2.5 22V24H3.5L3.5 22H2.5ZM2.5 26L2.5 28H3.5L3.5 26H2.5ZM2.5 30V32H3.5V30H2.5ZM2.5 34V36H3.5V34H2.5ZM2.5 38V40H3.5V38H2.5ZM2.5 42L2.5 44H3.5V42H2.5ZM2.5 46V48H3.5V46H2.5ZM2.5 50L2.5 52H3.5L3.5 50H2.5ZM2.5 54V56H3.5V54H2.5ZM2.5 58V60H3.5V58H2.5ZM2.5 62V64H3.5V62H2.5ZM2.5 66V68H3.5V66H2.5ZM2.5 70L2.5 72H3.5L3.5 70H2.5ZM2.5 74V76H3.5V74H2.5ZM2.5 78L2.5 80H3.5V78H2.5ZM2.5 82V83H3.5V82H2.5Z" fill="white"/>
</svg>
