<svg width="24" height="28" viewBox="0 0 24 28" fill="none" xmlns="http://www.w3.org/2000/svg">
<path fill-rule="evenodd" clip-rule="evenodd" d="M12 0.666656C18.6275 0.666656 24 6.03924 24 12.6667C24 16.7651 21.7655 20.1189 19.4112 22.526C18.1196 23.8465 16.7462 24.9297 15.5756 25.7484L15.0085 26.1356C14.9173 26.1964 14.8277 26.2553 14.7401 26.3124L14.2385 26.6319L13.7905 26.9055L13.2361 27.228C12.4639 27.6641 11.5361 27.6641 10.7639 27.228L10.2095 26.9055L9.51687 26.4778C9.43322 26.4246 9.3475 26.3694 9.25988 26.3124L8.71266 25.9475C7.48326 25.1086 5.98808 23.9565 4.58883 22.526C2.23453 20.1189 0 16.7651 0 12.6667C0 6.03924 5.37259 0.666656 12 0.666656ZM12 3.33332C6.84535 3.33332 2.66667 7.512 2.66667 12.6667C2.66667 15.7632 4.36269 18.4811 6.49521 20.6613C7.47582 21.6639 8.51672 22.5193 9.45723 23.2084L10.0676 23.643C10.2649 23.7795 10.4555 23.9076 10.6376 24.027L11.1568 24.3593L11.6144 24.6384L12 24.8633L12.6061 24.5056L13.0958 24.1997C13.3556 24.0335 13.6364 23.8477 13.9324 23.643L14.5428 23.2084C15.4833 22.5193 16.5242 21.6639 17.5048 20.6613C19.6373 18.4811 21.3333 15.7632 21.3333 12.6667C21.3333 7.512 17.1547 3.33332 12 3.33332ZM12 7.33332C14.9455 7.33332 17.3333 9.72114 17.3333 12.6667C17.3333 15.6121 14.9455 18 12 18C9.05448 18 6.66667 15.6121 6.66667 12.6667C6.66667 9.72114 9.05448 7.33332 12 7.33332ZM12 9.99999C10.5272 9.99999 9.33333 11.1939 9.33333 12.6667C9.33333 14.1395 10.5272 15.3333 12 15.3333C13.4728 15.3333 14.6667 14.1395 14.6667 12.6667C14.6667 11.1939 13.4728 9.99999 12 9.99999Z" fill="#FF7D44"/>
</svg>
