<svg width="202" height="39" viewBox="0 0 202 39" fill="none" xmlns="http://www.w3.org/2000/svg">
<path d="M29.6349 7.23623L29.0146 10.8544L28.9769 11.075H5.18066C5.18066 10.0153 5.52756 9.05566 6.09126 8.35994C6.65308 7.66611 7.42983 7.23434 8.28953 7.23434H29.633L29.6349 7.23623Z" fill="#E14D2A"/>
<path d="M28.3928 14.4744L28.3551 14.695L27.7348 18.315H10.3674C10.3674 17.2554 10.7143 16.2957 11.278 15.6C11.8399 14.9061 12.6166 14.4744 13.4763 14.4744H28.3909H28.3928Z" fill="#E14D2A"/>
<path d="M27.1236 21.7107L26.4637 25.5494H15.5271C15.5271 24.4898 15.857 23.5301 16.3906 22.8344C16.9241 22.1386 17.6594 21.7088 18.4738 21.7088H27.1236V21.7107Z" fill="#E14D2A"/>
<path d="M30.8529 0L30.1931 3.83872H0C0 2.77911 0.424193 1.81943 1.11044 1.12371C1.79669 0.429876 2.74688 0 3.79323 0H30.8529Z" fill="#E14D2A"/>
<path d="M53.4351 10.8544L47.9131 3.83872L44.889 0H33.6658L33.006 3.83872L31.8013 10.8544L31.1414 14.6931L29.9367 21.7088L29.2769 25.5475H55.2167L55.8766 21.7088L57.0813 14.6931L57.5715 11.8423C57.6601 11.3257 57.2623 10.8544 56.7382 10.8544H53.437H53.4351ZM36.901 3.83872H43.0264L48.5484 10.8544H35.6963L36.901 3.83872ZM51.9796 21.7088H33.8317L35.0365 14.6931H53.1862L51.9796 21.7088Z" fill="#2E3B81"/>
<path d="M70.642 35.9956H69.2443L73.8338 27.2683H75.3551L77.0469 35.9956H75.6491L74.375 28.8536H74.3068L70.642 35.9956ZM71.4432 32.578H75.9773L75.7898 33.6859H71.2557L71.4432 32.578ZM82.8029 33.2811L83.4421 29.4502H84.7205L83.6296 35.9956H82.3768L82.5685 34.8621H82.5003C82.2958 35.2115 82.006 35.5027 81.631 35.7357C81.2589 35.9658 80.827 36.0808 80.3356 36.0808C79.9151 36.0808 79.5586 35.9885 79.266 35.8038C78.9762 35.6163 78.7702 35.3394 78.6481 34.9729C78.5259 34.6064 78.5089 34.1533 78.5969 33.6135L79.2958 29.4502H80.5699L79.9009 33.4601C79.8299 33.9061 79.8966 34.2612 80.1012 34.5254C80.3057 34.7896 80.604 34.9217 80.9961 34.9217C81.2347 34.9217 81.4819 34.8621 81.7375 34.7428C81.9932 34.6234 82.2191 34.443 82.4151 34.2016C82.614 33.9601 82.7432 33.6533 82.8029 33.2811ZM89.4879 29.4502L89.3217 30.4729H85.7464L85.9126 29.4502H89.4879ZM87.1271 27.882H88.4013L87.37 34.0737C87.3302 34.3209 87.3373 34.507 87.3913 34.632C87.4453 34.7541 87.5277 34.8379 87.6385 34.8834C87.7521 34.926 87.8785 34.9473 88.0177 34.9473C88.12 34.9473 88.2095 34.9402 88.2862 34.926C88.3629 34.9118 88.424 34.9004 88.4694 34.8919L88.5376 35.9445C88.4524 35.9729 88.3373 36.0013 88.1924 36.0297C88.0504 36.0609 87.8771 36.078 87.6726 36.0808C87.3373 36.0865 87.0348 36.0269 86.7649 35.9019C86.495 35.774 86.2933 35.5808 86.1598 35.3223C86.0263 35.0609 85.9936 34.7328 86.0618 34.3379L87.1271 27.882ZM92.5231 36.1277C91.9009 36.1277 91.381 35.9857 90.9634 35.7016C90.5458 35.4146 90.2518 35.0141 90.0813 34.4999C89.9137 33.9828 89.8853 33.382 89.9961 32.6973C90.104 32.0269 90.3214 31.4416 90.6481 30.9416C90.9776 30.4416 91.3895 30.0538 91.8839 29.7783C92.381 29.5027 92.9336 29.3649 93.5415 29.3649C94.1637 29.3649 94.6822 29.5084 95.0969 29.7953C95.5145 30.0823 95.8086 30.4842 95.979 31.0013C96.1495 31.5183 96.1793 32.1206 96.0685 32.8081C95.9606 33.4729 95.7404 34.0553 95.408 34.5553C95.0785 35.0524 94.6665 35.4388 94.1722 35.7144C93.6779 35.9899 93.1282 36.1277 92.5231 36.1277ZM92.5955 35.0581C93.0046 35.0581 93.3611 34.9502 93.6651 34.7342C93.9719 34.5183 94.2219 34.2314 94.4151 33.8734C94.6083 33.5155 94.7404 33.1234 94.8114 32.6973C94.8768 32.2854 94.8753 31.909 94.8072 31.568C94.7418 31.2243 94.5998 30.9487 94.381 30.7413C94.1623 30.534 93.8583 30.4303 93.4691 30.4303C93.06 30.4303 92.7006 30.5396 92.391 30.7584C92.0841 30.9743 91.8341 31.2627 91.641 31.6234C91.4506 31.9842 91.3214 32.3777 91.2532 32.8038C91.1878 33.2129 91.1878 33.5894 91.2532 33.9331C91.3185 34.274 91.4606 34.5467 91.6793 34.7513C91.8981 34.9558 92.2035 35.0581 92.5955 35.0581ZM106.061 29.6121C106.064 29.1831 105.925 28.855 105.644 28.6277C105.365 28.4004 104.976 28.2868 104.476 28.2868C104.118 28.2868 103.799 28.3436 103.517 28.4573C103.239 28.568 103.012 28.7215 102.836 28.9175C102.662 29.1107 102.556 29.3308 102.516 29.578C102.479 29.7854 102.497 29.9644 102.571 30.1149C102.648 30.2655 102.757 30.3919 102.899 30.4942C103.044 30.5936 103.203 30.6774 103.377 30.7456C103.55 30.8109 103.718 30.8649 103.88 30.9075L104.698 31.1291C104.962 31.1973 105.23 31.2896 105.503 31.4061C105.776 31.5226 106.022 31.676 106.24 31.8663C106.459 32.0567 106.622 32.2925 106.73 32.5737C106.838 32.855 106.86 33.1916 106.794 33.5837C106.709 34.078 106.509 34.5169 106.194 34.9004C105.878 35.284 105.462 35.5865 104.945 35.8081C104.428 36.0297 103.828 36.1405 103.147 36.1405C102.493 36.1405 101.944 36.0368 101.497 35.8294C101.054 35.622 100.729 35.328 100.522 34.9473C100.314 34.5638 100.24 34.1092 100.3 33.5837H101.625C101.594 33.899 101.651 34.1618 101.796 34.372C101.944 34.5794 102.151 34.7342 102.418 34.8365C102.685 34.9359 102.988 34.9857 103.326 34.9857C103.701 34.9857 104.043 34.9274 104.353 34.8109C104.662 34.6916 104.918 34.5269 105.12 34.3166C105.321 34.1036 105.445 33.855 105.49 33.5709C105.536 33.3124 105.499 33.1007 105.38 32.9359C105.263 32.7712 105.087 32.6348 104.851 32.5269C104.618 32.4189 104.353 32.3237 104.054 32.2413L103.07 31.9601C102.402 31.7698 101.897 31.4899 101.553 31.1206C101.209 30.7513 101.086 30.2627 101.182 29.6547C101.267 29.1519 101.478 28.7129 101.813 28.3379C102.148 27.9629 102.566 27.6717 103.066 27.4644C103.566 27.2541 104.108 27.149 104.694 27.149C105.284 27.149 105.787 27.2541 106.202 27.4644C106.617 27.6746 106.924 27.9644 107.122 28.3337C107.321 28.703 107.391 29.1291 107.331 29.6121H106.061ZM109.783 32.1092L109.143 35.9956H107.869L109.318 27.2683H110.575L110.038 30.5155H110.119C110.327 30.1604 110.605 29.8805 110.955 29.676C111.307 29.4686 111.739 29.3649 112.25 29.3649C112.699 29.3649 113.075 29.4573 113.379 29.6419C113.686 29.8266 113.902 30.1021 114.027 30.4686C114.155 30.8323 114.175 31.2868 114.087 31.8323L113.388 35.9956H112.114L112.778 31.9857C112.858 31.5055 112.795 31.1334 112.591 30.8692C112.386 30.6021 112.067 30.4686 111.632 30.4686C111.328 30.4686 111.047 30.5325 110.788 30.6604C110.533 30.7882 110.317 30.9757 110.141 31.2229C109.964 31.4672 109.845 31.7627 109.783 32.1092ZM115.084 35.9956L116.175 29.4502H117.449L116.358 35.9956H115.084ZM117.078 28.4274C116.857 28.4274 116.669 28.3536 116.516 28.2058C116.365 28.0553 116.295 27.8763 116.307 27.6689C116.318 27.4587 116.406 27.2797 116.571 27.132C116.736 26.9814 116.928 26.9061 117.146 26.9061C117.368 26.9061 117.554 26.9814 117.705 27.132C117.855 27.2797 117.926 27.4587 117.918 27.6689C117.906 27.8763 117.818 28.0553 117.653 28.2058C117.491 28.3536 117.3 28.4274 117.078 28.4274ZM117.667 38.4502L119.176 29.4502H120.42L120.245 30.5112H120.352C120.448 30.3749 120.579 30.2172 120.744 30.0382C120.912 29.8592 121.132 29.703 121.404 29.5695C121.677 29.4331 122.017 29.3649 122.423 29.3649C122.951 29.3649 123.399 29.4984 123.765 29.7655C124.132 30.0325 124.393 30.4175 124.549 30.9203C124.706 31.4232 124.725 32.0283 124.609 32.7357C124.493 33.443 124.274 34.0496 123.953 34.5553C123.632 35.0581 123.243 35.4459 122.785 35.7186C122.331 35.9885 121.838 36.1234 121.306 36.1234C120.909 36.1234 120.595 36.0567 120.365 35.9232C120.137 35.7896 119.968 35.6334 119.858 35.4544C119.747 35.2754 119.663 35.1163 119.606 34.9771H119.529L118.95 38.4502H117.667ZM119.879 32.7229C119.805 33.1831 119.805 33.5865 119.879 33.9331C119.953 34.2797 120.1 34.551 120.322 34.747C120.546 34.9402 120.842 35.0368 121.208 35.0368C121.589 35.0368 121.923 34.9359 122.21 34.7342C122.497 34.5297 122.734 34.2527 122.921 33.9033C123.112 33.5538 123.244 33.1604 123.318 32.7229C123.389 32.2911 123.387 31.9033 123.314 31.5595C123.243 31.2158 123.096 30.9445 122.875 30.7456C122.653 30.5467 122.35 30.4473 121.967 30.4473C121.595 30.4473 121.265 30.5425 120.978 30.7328C120.694 30.9232 120.458 31.1888 120.271 31.5297C120.083 31.8706 119.953 32.2683 119.879 32.7229ZM125.085 38.4502L126.594 29.4502H127.838L127.663 30.5112H127.77C127.866 30.3749 127.997 30.2172 128.162 30.0382C128.33 29.8592 128.55 29.703 128.822 29.5695C129.095 29.4331 129.435 29.3649 129.841 29.3649C130.369 29.3649 130.817 29.4984 131.183 29.7655C131.55 30.0325 131.811 30.4175 131.967 30.9203C132.124 31.4232 132.143 32.0283 132.027 32.7357C131.91 33.443 131.692 34.0496 131.371 34.5553C131.05 35.0581 130.66 35.4459 130.203 35.7186C129.749 35.9885 129.256 36.1234 128.724 36.1234C128.327 36.1234 128.013 36.0567 127.783 35.9232C127.555 35.7896 127.386 35.6334 127.276 35.4544C127.165 35.2754 127.081 35.1163 127.024 34.9771H126.947L126.368 38.4502H125.085ZM127.297 32.7229C127.223 33.1831 127.223 33.5865 127.297 33.9331C127.371 34.2797 127.518 34.551 127.74 34.747C127.964 34.9402 128.26 35.0368 128.626 35.0368C129.007 35.0368 129.341 34.9359 129.628 34.7342C129.915 34.5297 130.152 34.2527 130.339 33.9033C130.53 33.5538 130.662 33.1604 130.736 32.7229C130.807 32.2911 130.805 31.9033 130.732 31.5595C130.66 31.2158 130.514 30.9445 130.293 30.7456C130.071 30.5467 129.768 30.4473 129.385 30.4473C129.013 30.4473 128.683 30.5425 128.396 30.7328C128.112 30.9232 127.876 31.1888 127.689 31.5297C127.501 31.8706 127.371 32.2683 127.297 32.7229ZM132.908 35.9956L133.999 29.4502H135.273L134.182 35.9956H132.908ZM134.902 28.4274C134.681 28.4274 134.493 28.3536 134.34 28.2058C134.189 28.0553 134.12 27.8763 134.131 27.6689C134.142 27.4587 134.23 27.2797 134.395 27.132C134.56 26.9814 134.752 26.9061 134.971 26.9061C135.192 26.9061 135.378 26.9814 135.529 27.132C135.679 27.2797 135.75 27.4587 135.742 27.6689C135.73 27.8763 135.642 28.0553 135.478 28.2058C135.316 28.3536 135.124 28.4274 134.902 28.4274ZM137.814 32.1092L137.175 35.9956H135.901L136.991 29.4502H138.214L138.035 30.5155H138.116C138.324 30.1661 138.607 29.8877 138.964 29.6803C139.325 29.47 139.751 29.3649 140.243 29.3649C140.686 29.3649 141.058 29.4587 141.359 29.6462C141.663 29.8308 141.878 30.1064 142.003 30.4729C142.131 30.8394 142.151 31.2925 142.062 31.8323L141.364 35.9956H140.089L140.759 31.9857C140.835 31.5112 140.773 31.1405 140.571 30.8734C140.372 30.6036 140.055 30.4686 139.621 30.4686C139.325 30.4686 139.051 30.5325 138.798 30.6604C138.548 30.7882 138.337 30.9757 138.163 31.2229C137.993 31.4672 137.876 31.7627 137.814 32.1092ZM145.403 38.5865C144.881 38.5865 144.443 38.5183 144.091 38.382C143.741 38.2456 143.466 38.0652 143.264 37.8408C143.065 37.6163 142.928 37.3706 142.851 37.1036L144.027 36.6519C144.084 36.7769 144.163 36.909 144.266 37.0482C144.368 37.1902 144.52 37.3109 144.722 37.4104C144.926 37.5098 145.206 37.5595 145.561 37.5595C146.044 37.5595 146.466 37.4416 146.827 37.2058C147.187 36.9729 147.41 36.6007 147.496 36.0894L147.696 34.8024H147.615C147.518 34.9416 147.385 35.0965 147.214 35.2669C147.044 35.4374 146.824 35.5851 146.554 35.7101C146.284 35.8351 145.949 35.8976 145.548 35.8976C145.031 35.8976 144.585 35.7769 144.21 35.5354C143.838 35.2911 143.571 34.9317 143.409 34.4573C143.247 33.98 143.224 33.3933 143.341 32.6973C143.455 32.0013 143.67 31.4047 143.989 30.9075C144.31 30.4104 144.699 30.0297 145.156 29.7655C145.616 29.4984 146.109 29.3649 146.635 29.3649C147.041 29.3649 147.358 29.4331 147.585 29.5695C147.815 29.703 147.986 29.8592 148.097 30.0382C148.207 30.2172 148.288 30.3749 148.339 30.5112H148.433L148.608 29.4502H149.857L148.749 36.1405C148.658 36.703 148.452 37.1646 148.131 37.5254C147.812 37.8862 147.416 38.1533 146.942 38.3266C146.47 38.4999 145.957 38.5865 145.403 38.5865ZM145.983 34.8408C146.347 34.8408 146.67 34.7555 146.955 34.5851C147.241 34.4118 147.48 34.1646 147.67 33.8436C147.861 33.5198 147.993 33.132 148.067 32.6803C148.141 32.2399 148.136 31.8521 148.054 31.5169C147.974 31.1817 147.82 30.9203 147.589 30.7328C147.362 30.5425 147.065 30.4473 146.699 30.4473C146.312 30.4473 145.977 30.5467 145.693 30.7456C145.409 30.9416 145.178 31.2087 144.999 31.5467C144.822 31.8848 144.699 32.2627 144.628 32.6803C144.56 33.1092 144.561 33.4857 144.632 33.8095C144.706 34.1334 144.854 34.3862 145.075 34.568C145.297 34.7499 145.599 34.8408 145.983 34.8408Z" fill="#FF7D44"/>
<path d="M76.4204 18.9956C74.5558 18.9956 72.9646 18.6619 71.6468 17.9926C70.3271 17.3252 69.3203 16.3975 68.6266 15.2097C67.9309 14.0219 67.584 12.655 67.584 11.107C67.584 9.55909 67.8479 8.08658 68.3758 6.74039C68.9037 5.3942 69.6691 4.22146 70.6702 3.21842C71.6732 2.21537 72.8685 1.42915 74.2579 0.857867C75.6474 0.286584 77.1953 0 78.8996 0C80.7453 0 82.3289 0.33372 83.6468 1.00305C84.9665 1.67237 85.977 2.59811 86.6802 3.78593C87.3834 4.97375 87.736 6.34068 87.736 7.88861C87.736 9.43654 87.4683 10.9091 86.9309 12.2552C86.3936 13.6014 85.6244 14.7742 84.6233 15.7772C83.6222 16.7803 82.4288 17.5665 81.0488 18.1378C79.6688 18.7091 78.1247 18.9956 76.4204 18.9956ZM76.7107 15.9884C77.8721 15.9884 78.9184 15.781 79.8498 15.3681C80.7811 14.9552 81.5767 14.3839 82.2365 13.6542C82.8964 12.9246 83.4017 12.0799 83.7523 11.1221C84.1049 10.1643 84.2802 9.1575 84.2802 8.10166C84.2802 7.04583 84.0596 6.21058 83.6204 5.43756C83.1811 4.66454 82.5382 4.06497 81.6955 3.64452C80.8508 3.22219 79.8139 3.01102 78.5828 3.01102C77.4403 3.01102 76.3978 3.21842 75.457 3.63132C74.5162 4.04423 73.7169 4.61552 73.057 5.34517C72.3972 6.07483 71.8957 6.9195 71.5544 7.8773C71.2113 8.83509 71.0397 9.84191 71.0397 10.8977C71.0397 11.9536 71.2547 12.7888 71.6864 13.5618C72.1181 14.3368 72.7554 14.9344 73.5981 15.3549C74.4427 15.7772 75.4796 15.9884 76.7107 15.9884Z" fill="#2E3B81"/>
<path d="M89.3967 18.7317L93.09 0.265869H100.213C102.445 0.265869 104.174 0.757964 105.395 1.74404C106.617 2.72823 107.228 4.09139 107.228 5.83352C107.228 7.39842 106.872 8.74839 106.159 9.88341C105.446 11.0184 104.432 11.8876 103.112 12.4947C101.793 13.1018 100.228 13.4054 98.4178 13.4054H92.4037L94.223 11.7707L92.8241 18.7355H89.3948L89.3967 18.7317ZM94.1438 12.1629L92.9297 10.5018H98.5479C100.201 10.5018 101.485 10.1323 102.4 9.3932C103.314 8.65411 103.772 7.57377 103.772 6.14839C103.772 5.14534 103.433 4.39872 102.756 3.90662C102.079 3.41453 101.108 3.16754 99.8412 3.16754H94.487L96.2799 1.45369L94.1438 12.1629Z" fill="#2E3B81"/>
<path d="M111.502 18.7317L114.615 3.16754H108.495L109.076 0.265869H124.718L124.137 3.16754H118.018L114.932 18.7317H111.502Z" fill="#2E3B81"/>
<path d="M123.636 18.7317L127.329 0.265869H130.759L127.065 18.7317H123.636Z" fill="#2E3B81"/>
<path d="M132.05 18.7317L135.743 0.265869H138.539L143.919 13.7994L142.468 13.773L152.993 0.265869H155.948L152.254 18.7317H149.01L151.674 5.27921L152.439 5.3056L143.523 16.6219H141.995L137.327 5.27921L137.986 5.3584L135.322 18.7336H132.051L132.05 18.7317Z" fill="#2E3B81"/>
<path d="M165.68 18.9957C163.94 18.9957 162.488 18.6525 161.329 17.9662C160.169 17.2799 159.355 16.3184 158.889 15.0778C158.423 13.8371 158.357 12.3741 158.691 10.6866L160.774 0.265869H164.204L162.12 10.6338C161.962 11.5313 161.923 12.3175 162.002 12.9944C162.081 13.6712 162.292 14.235 162.635 14.6818C162.978 15.1305 163.435 15.4605 164.008 15.6717C164.579 15.8828 165.252 15.9884 166.025 15.9884C167.009 15.9884 167.857 15.8036 168.57 15.4341C169.283 15.0646 169.88 14.4801 170.363 13.6807C170.846 12.8812 171.221 11.8556 171.485 10.6074L173.542 0.265869H176.918L174.809 10.8431C174.264 13.5524 173.227 15.5868 171.696 16.95C170.165 18.3131 168.161 18.9938 165.682 18.9938L165.68 18.9957Z" fill="#2E3B81"/>
<path d="M178.051 18.7317L181.745 0.265869H184.54L189.921 13.7994L188.469 13.773L198.995 0.265869H201.949L198.256 18.7317H195.011L197.675 5.27921L198.441 5.3056L189.525 16.6219H187.996L183.328 5.27921L183.988 5.3584L181.324 18.7336H178.053L178.051 18.7317Z" fill="#2E3B81"/>
</svg>
