<svg width="24" height="26" viewBox="0 0 24 26" fill="none" xmlns="http://www.w3.org/2000/svg">
<path d="M12 14.25C14.995 14.25 17.7188 15.1175 19.7225 16.3387C20.7225 16.9513 21.5775 17.67 22.195 18.4513C22.8025 19.2213 23.25 20.1413 23.25 21.125C23.25 22.1812 22.7362 23.0138 21.9963 23.6075C21.2962 24.17 20.3725 24.5425 19.3913 24.8025C17.4188 25.3237 14.7863 25.5 12 25.5C9.21375 25.5 6.58125 25.325 4.60875 24.8025C3.6275 24.5425 2.70375 24.17 2.00375 23.6075C1.2625 23.0125 0.75 22.1812 0.75 21.125C0.75 20.1413 1.1975 19.2213 1.805 18.4513C2.4225 17.67 3.27625 16.9513 4.2775 16.3387C6.28125 15.1175 9.00625 14.25 12 14.25ZM12 0.5C13.6576 0.5 15.2473 1.15848 16.4194 2.33058C17.5915 3.50269 18.25 5.0924 18.25 6.75C18.25 8.4076 17.5915 9.99732 16.4194 11.1694C15.2473 12.3415 13.6576 13 12 13C10.3424 13 8.75268 12.3415 7.58058 11.1694C6.40848 9.99732 5.75 8.4076 5.75 6.75C5.75 5.0924 6.40848 3.50269 7.58058 2.33058C8.75268 1.15848 10.3424 0.5 12 0.5Z" fill="black"/>
</svg>
