<svg width="71" height="32" viewBox="0 0 71 32" fill="none" xmlns="http://www.w3.org/2000/svg">
<path d="M36.3507 8.87615L35.5898 13.3142L35.5436 13.5848H6.35449C6.35449 12.2851 6.78 11.1079 7.47146 10.2545C8.1606 9.40345 9.11337 8.87384 10.1679 8.87384H36.3484L36.3507 8.87615Z" fill="#E14D2A"/>
<path d="M34.8272 17.7546L34.7809 18.0252L34.0201 22.4656H12.7168C12.7168 21.1659 13.1423 19.9887 13.8338 19.1353C14.5229 18.2842 15.4757 17.7546 16.5302 17.7546H34.8249H34.8272Z" fill="#E14D2A"/>
<path d="M33.2704 26.6309L32.461 31.3395H19.0459C19.0459 30.0398 19.4506 28.8626 20.1051 28.0092C20.7595 27.1558 21.6614 26.6285 22.6604 26.6285H33.2704V26.6309Z" fill="#E14D2A"/>
<path d="M37.845 0L37.0356 4.70867H0C0 3.40893 0.520325 2.23176 1.3621 1.37837C2.20387 0.527297 3.3694 0 4.65287 0H37.845Z" fill="#E14D2A"/>
<path d="M65.5452 13.3143L58.7717 4.70867L55.0624 0H41.2957L40.4864 4.70867L39.0086 13.3143L38.1992 18.0229L36.7215 26.6285L35.9121 31.3372H67.7306L68.54 26.6285L70.0177 18.0229L70.619 14.5261C70.7277 13.8924 70.2397 13.3143 69.5968 13.3143H65.5475H65.5452ZM45.2641 4.70867H52.7776L59.5511 13.3143H43.7864L45.2641 4.70867V4.70867ZM63.7599 26.6285H41.4993L42.977 18.0229H65.24L63.7599 26.6285Z" fill="white"/>
</svg>
