<svg xmlns="http://www.w3.org/2000/svg" width="246" height="44" fill="none"><path fill="#E14D2A" d="m36.35 8.876-.76 4.438-.046.27H6.354c0-1.299.426-2.476 1.117-3.33.69-.85 1.642-1.38 2.697-1.38h26.18l.003.002ZM34.827 17.755l-.046.27-.76 4.44H12.716c0-1.3.425-2.476 1.117-3.33.689-.85 1.642-1.38 2.696-1.38h18.297ZM33.27 26.63l-.809 4.71H19.046c0-1.3.405-2.477 1.06-3.33.653-.854 1.555-1.382 2.554-1.382h10.61v.003ZM37.845 0l-.81 4.709H0c0-1.3.52-2.477 1.362-3.33A4.618 4.618 0 0 1 4.652 0h33.193Z"/><path fill="#fff" d="M65.545 13.314 58.772 4.71 55.062 0H41.296l-.81 4.709-1.477 8.605-.81 4.709-1.477 8.605-.81 4.71h31.819l.809-4.71 1.478-8.605.601-3.497a1.037 1.037 0 0 0-1.022-1.212h-4.052ZM45.265 4.71h7.513l6.773 8.605H43.786l1.478-8.605Zm18.495 21.92H41.5l1.477-8.606H65.24l-1.48 8.605Z"/><path fill="#FF7D44" d="M84.124 40.3h-1.397l4.589-8.727h1.521L90.53 40.3h-1.398l-1.274-7.142h-.068L84.124 40.3Zm.801-3.417h4.534l-.187 1.108h-4.534l.187-1.108Zm11.36.703.64-3.83h1.278L97.112 40.3h-1.253l.192-1.133h-.069c-.204.35-.494.64-.869.874-.372.23-.804.345-1.295.345-.42 0-.777-.093-1.07-.277-.29-.188-.496-.465-.618-.831-.122-.367-.139-.82-.05-1.36l.698-4.163h1.274l-.669 4.01c-.07.446-.004.801.2 1.065.205.265.503.397.895.397.239 0 .486-.06.742-.18.255-.119.481-.299.677-.54.2-.242.328-.549.388-.921Zm6.685-3.83-.166 1.022h-3.575l.166-1.023h3.575Zm-2.361-1.57h1.274l-1.031 6.193c-.04.247-.032.433.021.558a.457.457 0 0 0 .248.251c.113.043.24.064.379.064.102 0 .192-.007.268-.021l.184-.034.068 1.052c-.085.029-.2.057-.345.086a2.638 2.638 0 0 1-.52.05 2.054 2.054 0 0 1-.908-.178 1.276 1.276 0 0 1-.605-.58c-.134-.261-.166-.59-.098-.984l1.065-6.456Zm5.396 8.247c-.622 0-1.142-.142-1.559-.426a2.284 2.284 0 0 1-.883-1.202c-.167-.517-.196-1.118-.085-1.803.108-.67.326-1.255.652-1.755.33-.5.742-.888 1.236-1.164a3.362 3.362 0 0 1 1.658-.413c.622 0 1.14.143 1.555.43.418.287.712.69.882 1.206.171.517.2 1.12.09 1.807-.108.665-.328 1.247-.661 1.747a3.529 3.529 0 0 1-1.236 1.16 3.327 3.327 0 0 1-1.649.413Zm.073-1.07c.409 0 .765-.108 1.069-.324.307-.216.557-.503.75-.86.193-.359.326-.75.397-1.177a3.183 3.183 0 0 0-.005-1.129c-.065-.344-.207-.62-.426-.827-.219-.207-.523-.31-.912-.31-.409 0-.768.109-1.078.327a2.446 2.446 0 0 0-.75.865c-.19.361-.319.755-.388 1.18-.065.41-.065.786 0 1.13.066.34.208.614.426.818.219.205.525.307.917.307Zm13.466-5.446c.002-.429-.137-.757-.418-.984-.278-.228-.668-.341-1.168-.341-.358 0-.677.056-.958.17-.279.111-.506.264-.682.46-.174.194-.28.414-.32.66a.854.854 0 0 0 .056.538c.076.15.186.277.328.38.145.099.304.182.477.25.173.066.341.12.503.163l.818.221c.264.068.533.16.805.277.273.117.519.27.738.46.218.19.382.426.49.708.108.28.129.618.064 1.01a2.794 2.794 0 0 1-.601 1.316c-.316.384-.732.686-1.249.908-.517.222-1.116.332-1.798.332-.654 0-1.203-.103-1.649-.31-.444-.208-.769-.502-.976-.883-.208-.383-.281-.838-.222-1.363h1.326c-.032.315.025.578.17.788.148.207.355.362.622.464.267.1.57.15.908.15.375 0 .717-.059 1.027-.175.309-.12.565-.284.767-.494.202-.214.325-.462.371-.746.045-.259.008-.47-.111-.635a1.282 1.282 0 0 0-.529-.41 5.15 5.15 0 0 0-.797-.285l-.984-.281c-.668-.19-1.173-.47-1.517-.84-.344-.369-.467-.857-.371-1.465.086-.503.296-.942.631-1.317a3.397 3.397 0 0 1 1.253-.874c.5-.21 1.042-.315 1.628-.315.591 0 1.093.105 1.508.315.415.21.722.5.921.87.199.369.268.795.208 1.278h-1.269Zm3.721 2.497-.639 3.886h-1.275l1.449-8.727h1.257l-.536 3.247h.08c.208-.355.486-.635.836-.84.352-.206.784-.31 1.295-.31.449 0 .825.092 1.129.277.307.184.523.46.648.826.128.364.148.819.06 1.364l-.699 4.163h-1.274l.665-4.01c.079-.48.017-.852-.188-1.116-.204-.267-.524-.4-.959-.4-.304 0-.585.063-.843.191a1.75 1.75 0 0 0-.648.563c-.176.244-.296.54-.358.886Zm5.301 3.886 1.091-6.545h1.274L129.84 40.3h-1.274Zm1.994-7.568a.78.78 0 0 1-.562-.221.677.677 0 0 1-.209-.537.75.75 0 0 1 .264-.537.827.827 0 0 1 .575-.226.76.76 0 0 1 .559.226c.15.148.221.327.213.537a.77.77 0 0 1-.264.537.826.826 0 0 1-.576.221Zm.589 10.023 1.509-9h1.244l-.174 1.061h.106c.097-.136.227-.294.392-.473.168-.179.388-.335.661-.469.272-.136.612-.204 1.018-.204.529 0 .976.133 1.342.4.367.267.628.652.785 1.155.156.503.176 1.108.059 1.816-.116.707-.335 1.314-.656 1.82-.321.502-.71.89-1.168 1.163-.454.27-.947.404-1.478.404-.398 0-.712-.066-.942-.2a1.433 1.433 0 0 1-.507-.469 3.305 3.305 0 0 1-.252-.477h-.076l-.58 3.473h-1.283Zm2.212-5.727c-.074.46-.074.863 0 1.21s.222.618.443.814c.225.193.52.29.887.29.38 0 .714-.101 1.001-.303.287-.204.524-.481.712-.83.19-.35.322-.744.396-1.181.071-.432.07-.82-.004-1.163-.071-.344-.218-.616-.439-.815-.222-.198-.524-.298-.908-.298-.372 0-.702.095-.989.286-.284.19-.519.456-.707.797-.187.34-.318.738-.392 1.193Zm5.206 5.727 1.509-9h1.244l-.174 1.061h.106c.097-.136.227-.294.392-.473.168-.179.388-.335.661-.469.272-.136.612-.204 1.018-.204.528 0 .976.133 1.342.4.367.267.628.652.784 1.155.157.503.177 1.108.06 1.816-.116.707-.335 1.314-.656 1.82-.321.502-.71.89-1.168 1.163-.454.27-.947.404-1.478.404-.398 0-.712-.066-.942-.2a1.433 1.433 0 0 1-.507-.469 3.305 3.305 0 0 1-.252-.477h-.076l-.58 3.473h-1.283Zm2.212-5.727c-.074.46-.074.863 0 1.21s.222.618.443.814c.225.193.52.29.887.29.38 0 .714-.101 1.001-.303.287-.204.524-.481.712-.83.19-.35.322-.744.396-1.181.071-.432.07-.82-.004-1.163-.071-.344-.218-.616-.439-.815-.222-.198-.524-.298-.908-.298-.372 0-.702.095-.989.286-.284.19-.519.456-.707.797-.187.34-.318.738-.392 1.193Zm5.611 3.273 1.091-6.546h1.274l-1.091 6.545h-1.274Zm1.994-7.569a.78.78 0 0 1-.562-.221.677.677 0 0 1-.209-.537c.012-.21.1-.39.264-.537a.828.828 0 0 1 .576-.226.76.76 0 0 1 .558.226c.15.148.222.327.213.537a.761.761 0 0 1-.264.537.826.826 0 0 1-.576.221Zm2.912 3.682-.639 3.886h-1.274l1.091-6.545h1.223l-.179 1.065h.081c.207-.349.49-.627.848-.835.36-.21.787-.315 1.278-.315.443 0 .815.094 1.117.281.304.185.518.46.643.827.128.366.148.82.06 1.36l-.699 4.163h-1.274l.669-4.01c.076-.475.014-.846-.188-1.113-.199-.27-.515-.404-.95-.404-.296 0-.57.063-.823.191-.25.128-.461.316-.634.563-.171.244-.287.54-.35.886Zm7.59 6.477c-.523 0-.961-.068-1.313-.204-.349-.136-.625-.317-.827-.541a1.893 1.893 0 0 1-.413-.738l1.176-.451c.057.125.137.257.239.396.102.142.254.263.456.362.204.1.484.15.839.15.483 0 .905-.118 1.266-.354.361-.233.584-.605.669-1.117l.2-1.287h-.081c-.096.14-.23.294-.4.465-.171.17-.391.318-.661.443s-.605.188-1.006.188c-.517 0-.963-.121-1.338-.363-.372-.244-.639-.603-.801-1.078-.162-.477-.184-1.064-.068-1.76.114-.696.33-1.292.648-1.79.321-.497.71-.877 1.167-1.142.461-.267.954-.4 1.479-.4.406 0 .723.068.95.204.23.134.401.29.512.47.111.178.192.336.243.472h.093l.175-1.06h1.249l-1.108 6.69c-.091.562-.297 1.024-.618 1.384-.318.361-.715.628-1.189.802-.472.173-.984.26-1.538.26Zm.579-3.745c.364 0 .688-.086.972-.256.287-.173.525-.42.716-.742.19-.323.322-.711.396-1.163.074-.44.07-.828-.013-1.163-.079-.335-.234-.597-.464-.784-.228-.19-.525-.286-.891-.286-.386 0-.722.1-1.006.298a2.204 2.204 0 0 0-.694.802c-.176.338-.3.716-.371 1.133-.068.43-.067.806.004 1.13.074.323.222.576.443.758.222.182.525.273.908.273Z"/><path fill="#fff" d="M91.473 23.3c-2.287 0-4.24-.409-5.856-1.23-1.618-.819-2.853-1.956-3.704-3.413-.854-1.457-1.28-3.134-1.28-5.033 0-1.899.325-3.705.972-5.356a12.509 12.509 0 0 1 2.814-4.32c1.23-1.23 2.697-2.195 4.401-2.896C90.525.352 92.423 0 94.514 0c2.264 0 4.206.41 5.823 1.23 1.619.821 2.858 1.957 3.721 3.414.862 1.457 1.295 3.134 1.295 5.032 0 1.9-.329 3.705-.988 5.357a12.713 12.713 0 0 1-2.83 4.32c-1.228 1.23-2.692 2.194-4.385 2.895-1.693.701-3.587 1.052-5.677 1.052Zm.356-3.688c1.424 0 2.708-.255 3.85-.761a8.59 8.59 0 0 0 2.928-2.102 9.395 9.395 0 0 0 1.859-3.106c.433-1.175.648-2.41.648-3.705s-.271-2.32-.81-3.268c-.538-.948-1.327-1.684-2.36-2.2-1.037-.518-2.309-.777-3.819-.777-1.401 0-2.68.255-3.834.761a8.543 8.543 0 0 0-2.944 2.103 9.168 9.168 0 0 0-1.843 3.105 10.904 10.904 0 0 0-.631 3.705c0 1.296.263 2.32.793 3.268.53.95 1.311 1.684 2.345 2.2 1.036.518 2.308.777 3.818.777ZM107.39 22.977l4.53-22.65h8.737c2.738 0 4.859.603 6.357 1.812 1.499 1.208 2.248 2.88 2.248 5.017 0 1.92-.437 3.575-1.311 4.967-.874 1.393-2.118 2.459-3.737 3.203-1.619.745-3.538 1.117-5.758 1.117h-7.377l2.231-2.005-1.716 8.543h-4.206l.002-.004Zm5.823-8.058-1.489-2.037h6.891c2.028 0 3.603-.454 4.725-1.36 1.121-.907 1.683-2.232 1.683-3.98 0-1.23-.416-2.146-1.246-2.75-.83-.604-2.021-.907-3.575-.907h-6.568l2.199-2.102-2.62 13.136ZM134.505 22.977l3.818-19.092h-7.507l.713-3.559h19.187l-.712 3.56h-7.507l-3.786 19.09h-4.206ZM149.389 22.977l4.53-22.65h4.207l-4.531 22.65h-4.206ZM159.709 22.977l4.53-22.65h3.43l6.6 16.6-1.781-.033L185.399.326h3.624l-4.53 22.65h-3.98l3.267-16.5.939.032-10.936 13.88h-1.875l-5.726-13.912.809.097-3.267 16.406h-4.013l-.002-.002ZM200.961 23.3c-2.135 0-3.915-.42-5.338-1.262-1.422-.842-2.421-2.021-2.992-3.543-.571-1.522-.652-3.317-.243-5.387L194.944.326h4.206l-2.555 12.718c-.195 1.1-.243 2.065-.146 2.895.097.83.356 1.522.777 2.07.421.55.981.955 1.684 1.214.7.26 1.526.389 2.474.389 1.207 0 2.248-.227 3.122-.68.874-.453 1.607-1.17 2.199-2.151.592-.98 1.052-2.239 1.376-3.77L210.604.326h4.142L212.158 13.3c-.668 3.324-1.94 5.82-3.818 7.491-1.878 1.672-4.336 2.507-7.377 2.507l-.002.003ZM216.136 22.977l4.53-22.65h3.43l6.6 16.6-1.781-.033L241.826.326h3.624l-4.531 22.65h-3.979l3.267-16.5.939.032-10.936 13.88h-1.876l-5.725-13.912.809.097-3.268 16.406h-4.012l-.002-.002Z"/></svg>