<svg width="14" height="12" viewBox="0 0 14 12" fill="none" xmlns="http://www.w3.org/2000/svg">
<path fill-rule="evenodd" clip-rule="evenodd" d="M0.5 6.00005C0.5 5.78456 0.585603 5.5779 0.737976 5.42553C0.890349 5.27315 1.09701 5.18755 1.3125 5.18755H10.7261L7.23725 1.7003C7.08468 1.54773 6.99897 1.34081 6.99897 1.12505C6.99897 0.90929 7.08468 0.702366 7.23725 0.5498C7.38982 0.397234 7.59674 0.311523 7.8125 0.311523C8.02826 0.311523 8.23518 0.397234 8.38775 0.5498L13.2628 5.4248C13.3384 5.50027 13.3984 5.58993 13.4394 5.68865C13.4804 5.78736 13.5015 5.89318 13.5015 6.00005C13.5015 6.10692 13.4804 6.21274 13.4394 6.31145C13.3984 6.41016 13.3384 6.49983 13.2628 6.5753L8.38775 11.4503C8.23518 11.6029 8.02826 11.6886 7.8125 11.6886C7.59674 11.6886 7.38982 11.6029 7.23725 11.4503C7.08468 11.2977 6.99897 11.0908 6.99897 10.8751C6.99897 10.6593 7.08468 10.4524 7.23725 10.2998L10.7261 6.81255H1.3125C1.09701 6.81255 0.890349 6.72695 0.737976 6.57457C0.585603 6.4222 0.5 6.21554 0.5 6.00005Z" fill="white"/>
</svg>
