<svg width="24" height="24" viewBox="0 0 24 24" fill="none" xmlns="http://www.w3.org/2000/svg">
<path d="M10.3125 22.95L0.4125 13.05C0.2625 12.9 0.156 12.7375 0.0929997 12.5625C0.0309997 12.3875 0 12.2 0 12C0 11.8 0.0309997 11.6125 0.0929997 11.4375C0.156 11.2625 0.2625 11.1 0.4125 10.95L10.3125 1.05C10.5875 0.775001 10.931 0.631002 11.343 0.618002C11.756 0.606002 12.1125 0.750001 12.4125 1.05C12.7125 1.325 12.869 1.6685 12.882 2.0805C12.894 2.4935 12.75 2.85 12.45 3.15L5.1 10.5H21.8625C22.2875 10.5 22.644 10.6435 22.932 10.9305C23.219 11.2185 23.3625 11.575 23.3625 12C23.3625 12.425 23.219 12.781 22.932 13.068C22.644 13.356 22.2875 13.5 21.8625 13.5H5.1L12.45 20.85C12.725 21.125 12.869 21.475 12.882 21.9C12.894 22.325 12.75 22.675 12.45 22.95C12.175 23.25 11.825 23.4 11.4 23.4C10.975 23.4 10.6125 23.25 10.3125 22.95V22.95Z" fill="white"/>
</svg>
